<svg xmlns="http://www.w3.org/2000/svg" viewBox="0 0 64 64" role="img" aria-label="文本对比">
  <defs>
    <linearGradient id="diff-bg" x1="8" x2="56" y1="6" y2="58" gradientUnits="userSpaceOnUse">
      <stop stop-color="#38bdf8"/>
      <stop offset="1" stop-color="#2563eb"/>
    </linearGradient>
  </defs>
  <rect width="64" height="64" rx="14" fill="url(#diff-bg)"/>
  <rect x="11" y="13" width="18" height="38" rx="4" fill="#eff6ff" opacity=".96"/>
  <rect x="35" y="13" width="18" height="38" rx="4" fill="#eff6ff" opacity=".96"/>
  <path fill="none" stroke="#2563eb" stroke-linecap="round" stroke-width="2.7" d="M16 22h8m-8 7h7m-7 7h9m15-14h8m-8 7h7m-7 7h9"/>
  <path fill="none" stroke="#fff" stroke-linecap="round" stroke-linejoin="round" stroke-width="3" d="M29.5 27.5h5m-2.5-2.5 2.5 2.5-2.5 2.5m2.5 8.5h-5m2.5-2.5-2.5 2.5 2.5 2.5"/>
  <circle cx="24" cy="43" r="3" fill="#22c55e"/>
  <path fill="none" stroke="#fff" stroke-linecap="round" stroke-width="1.7" d="m22.7 43 1 1 1.9-2.1"/>
  <circle cx="40" cy="43" r="3" fill="#f97316"/>
  <path fill="none" stroke="#fff" stroke-linecap="round" stroke-width="1.7" d="M38.8 43h2.4"/>
</svg>
