<svg xmlns="http://www.w3.org/2000/svg" viewBox="0 0 64 64" role="img" aria-label="价税分离" fill="none"><rect width="64" height="64" rx="14" fill="#ea580c"/><g transform="translate(12 12) scale(1.6667)"><path fill="none" stroke="white" stroke-linecap="round" stroke-linejoin="round" stroke-width="2.25" d="M3.85 8.62a4 4 0 0 1 4.78-4.77a4 4 0 0 1 6.74 0a4 4 0 0 1 4.78 4.78a4 4 0 0 1 0 6.74a4 4 0 0 1-4.77 4.78a4 4 0 0 1-6.75 0a4 4 0 0 1-4.78-4.77a4 4 0 0 1 0-6.76M15 9l-6 6m0-6h.01M15 15h.01"/></g></svg>
