<svg xmlns="http://www.w3.org/2000/svg" viewBox="0 0 64 64" role="img" aria-label="镜像拉取" fill="none"><rect width="64" height="64" rx="14" fill="#2563eb"/><g transform="translate(12 12) scale(1.6667)"><g fill="none" stroke="white" stroke-linecap="round" stroke-linejoin="round" stroke-width="2.25"><path d="M12 22V12m8.27 6.27L22 20m-1-9.502V8a2 2 0 0 0-1-1.73l-7-4a2 2 0 0 0-2 0l-7 4A2 2 0 0 0 3 8v8a2 2 0 0 0 1 1.729l7 4a2 2 0 0 0 2 .001l.98-.559"/><path d="M3.29 7L12 12l8.71-5M7.5 4.27l8.997 5.148"/><circle cx="18.5" cy="16.5" r="2.5"/></g></g></svg>
