<svg xmlns="http://www.w3.org/2000/svg" viewBox="0 0 64 64" role="img" aria-label="Hosts 编辑器">
  <defs>
    <linearGradient id="hosts-bg" x1="8" x2="56" y1="6" y2="58" gradientUnits="userSpaceOnUse">
      <stop stop-color="#34d399"/>
      <stop offset="1" stop-color="#16a34a"/>
    </linearGradient>
  </defs>
  <rect width="64" height="64" rx="14" fill="url(#hosts-bg)"/>
  <rect x="12" y="12" width="40" height="40" rx="6" fill="#f0fdf4" opacity=".96"/>
  <path fill="#16a34a" d="M18 21.5a2.5 2.5 0 1 1 2.5 2.5 2.5 2.5 0 0 1-2.5-2.5Zm0 10a2.5 2.5 0 1 1 2.5 2.5 2.5 2.5 0 0 1-2.5-2.5Zm0 10a2.5 2.5 0 1 1 2.5 2.5 2.5 2.5 0 0 1-2.5-2.5Z"/>
  <path fill="none" stroke="#15803d" stroke-linecap="round" stroke-width="2.7" d="M27 21.5h15m-15 10h11m-11 10h8"/>
  <path fill="#f97316" d="m39.7 39.4 7.5-7.5a2.5 2.5 0 0 1 3.5 3.5l-7.5 7.5-5.1 1.6 1.6-5.1Z"/>
  <path fill="#fff" d="m40.9 39.7 2 2 4.8-4.8-2-2-4.8 4.8Z"/>
</svg>
