<svg xmlns="http://www.w3.org/2000/svg" viewBox="0 0 64 64" role="img" aria-label="PDF 工具箱">
  <defs>
    <linearGradient id="pdf-page" x1="15" x2="51" y1="7" y2="58" gradientUnits="userSpaceOnUse">
      <stop stop-color="#f43f5e"/>
      <stop offset="1" stop-color="#dc2626"/>
    </linearGradient>
  </defs>
  <path fill="url(#pdf-page)" d="M16 7.5h24.4L52 19.1v36.4a4 4 0 0 1-4 4H16a4 4 0 0 1-4-4v-44a4 4 0 0 1 4-4Z"/>
  <path fill="#fecaca" d="M40 7.5v10.2a2 2 0 0 0 2 2h10L40 7.5Z"/>
  <text x="32" y="41" fill="#fff" font-family="Arial, Helvetica, sans-serif" font-size="16" font-weight="800" letter-spacing=".5" text-anchor="middle">PDF</text>
  <path fill="#fff" fill-opacity=".95" d="M44.8 47.5a2.25 2.25 0 1 1 2.25 2.25 2.25 2.25 0 0 1-2.25-2.25Zm-25.1 0a2.25 2.25 0 1 1 2.25 2.25 2.25 2.25 0 0 1-2.25-2.25Zm12.55 3.15a2.25 2.25 0 1 1 2.25 2.25 2.25 2.25 0 0 1-2.25-2.25Z"/>
  <path fill="none" stroke="#fff" stroke-linecap="round" stroke-width="2.4" d="M24.5 47.5h7.3m5 1.6 7.4-1.2"/>
</svg>
