<svg xmlns="http://www.w3.org/2000/svg" viewBox="0 0 64 64" role="img" aria-label="编解码" fill="none"><rect width="64" height="64" rx="14" fill="#2563eb"/><g transform="translate(12 12) scale(1.6667)"><g fill="none" stroke="white" stroke-linecap="round" stroke-linejoin="round" stroke-width="2.25"><path d="M14 14a1 1 0 0 1 1 1v5a1 1 0 0 1-1 1m0-17a1 1 0 0 1 1-1m0 7a1 1 0 0 1-1-1m5 5a1 1 0 0 1 1 1v5a1 1 0 0 1-1 1m2-17a1 1 0 0 0-1-1m1 6a1 1 0 0 1-1 1M3 7l3 3l3-3"/><path d="M6 10V5a2 2 0 0 1 2-2h2"/><rect width="7" height="7" x="3" y="14" rx="1"/></g></g></svg>
