<svg xmlns="http://www.w3.org/2000/svg" viewBox="0 0 64 64" role="img" aria-label="IP 查询">
  <defs>
    <linearGradient id="ip-bg" x1="8" x2="56" y1="6" y2="58" gradientUnits="userSpaceOnUse">
      <stop stop-color="#2dd4bf"/>
      <stop offset="1" stop-color="#059669"/>
    </linearGradient>
  </defs>
  <rect width="64" height="64" rx="14" fill="url(#ip-bg)"/>
  <rect x="12" y="15" width="34" height="32" rx="7" fill="#ecfdf5" opacity=".96"/>
  <rect x="18" y="22" width="22" height="11" rx="4" fill="#059669"/>
  <text x="29" y="31.4" fill="#fff" font-family="Arial, Helvetica, sans-serif" font-size="11" font-weight="800" text-anchor="middle">IP</text>
  <path fill="none" stroke="#059669" stroke-linecap="round" stroke-width="2.7" d="M18 39h17m-17-20h8m15 0h-7"/>
  <circle cx="43" cy="41" r="8" fill="none" stroke="#f97316" stroke-width="5"/>
  <path fill="none" stroke="#f97316" stroke-linecap="round" stroke-width="5" d="m49 47 5 5"/>
  <path fill="#f97316" d="M43 31.5a5.5 5.5 0 0 0-5.5 5.5c0 4.2 5.5 8.6 5.5 8.6s5.5-4.4 5.5-8.6a5.5 5.5 0 0 0-5.5-5.5Zm0 7.2a1.8 1.8 0 1 1 0-3.6 1.8 1.8 0 0 1 0 3.6Z"/>
</svg>
