<svg xmlns="http://www.w3.org/2000/svg" viewBox="0 0 64 64" role="img" aria-label="二维码生成" fill="none"><rect width="64" height="64" rx="14" fill="#ea580c"/><g transform="translate(12 12) scale(1.6667)"><g fill="none" stroke="white" stroke-linecap="round" stroke-linejoin="round" stroke-width="2.25"><rect width="5" height="5" x="3" y="3" rx="1"/><rect width="5" height="5" x="16" y="3" rx="1"/><rect width="5" height="5" x="3" y="16" rx="1"/><path d="M21 16h-3a2 2 0 0 0-2 2v3m5 0v.01M12 7v3a2 2 0 0 1-2 2H7m-4 0h.01M12 3h.01M12 16v.01M16 12h1m4 0v.01M12 21v-1"/></g></g></svg>
